<svg xmlns="http://www.w3.org/2000/svg" version="1.1" xmlns:xlink="http://www.w3.org/1999/xlink" width="512" height="512" x="0" y="0" viewBox="0 0 58 58" style="enable-background:new 0 0 512 512" xml:space="preserve" class=""><g><g fill="none" fill-rule="nonzero"><path fill="#f29c1f" d="m43.74 21.37 2.63 2.08c.452.361.791.843.98 1.39l1.49 4.45c.159.463.2.957.12 1.44l-.56 3.35a1.014 1.014 0 0 1-1.71.55l-2.22-2.2a2.034 2.034 0 0 0-1.03-.55l-2.63-.52zM31.19 31.36l-2.63.52c-.39.079-.748.27-1.03.55l-2.22 2.2a1.014 1.014 0 0 1-1.71-.55l-.56-3.35a2.945 2.945 0 0 1 .12-1.44l1.49-4.45a3.055 3.055 0 0 1 .98-1.39l2.63-2.08z" opacity="1" data-original="#f29c1f"></path><path fill="#fdd7ad" d="M56.68 44.57S42.53 51.46 37.94 54c-1.12.62-4.66 1-5.94 1L9 56 7 38h4.8c2.072.003 4.08.708 5.7 2s3.628 1.997 5.7 2h5.23a4.989 4.989 0 0 1 4.29 2.43l.09.15c.078.136.148.276.21.42.275.618.362 1.303.25 1.97h1.58c.432 0 .861-.07 1.27-.21l18.27-7.14a2.755 2.755 0 0 1 3.06.96v.01a2.73 2.73 0 0 1-.77 3.98z" opacity="1" data-original="#fdd7ad"></path><path fill="#cbb292" d="M25.97 47a7.914 7.914 0 0 0-4.44 1.34l-.73.49a.969.969 0 0 1-.56.17 1 1 0 0 1-.56-1.83l.73-.49A9.983 9.983 0 0 1 25.97 45h7.05c.275.618.362 1.303.25 1.97z" opacity="1" data-original="#cbb292"></path><path fill="#e64c3c" d="M41.82 7.16a18.966 18.966 0 0 1 1.97 6.32c.296 2.623.28 5.271-.05 7.89a31.5 31.5 0 0 1-2.93 9.99c-.24.49-.45.87-.61 1.14a1 1 0 0 1-.87.5h-6.66a1 1 0 0 1-.87-.5c-.16-.27-.37-.65-.61-1.14a31.5 31.5 0 0 1-2.93-9.99 33.318 33.318 0 0 1-.05-7.89 18.966 18.966 0 0 1 1.97-6.32z" opacity="1" data-original="#e64c3c" class=""></path><path fill="#f0c419" d="M41.82 7.16A9.135 9.135 0 0 1 36 9a9.135 9.135 0 0 1-5.82-1.84 31.3 31.3 0 0 1 4.41-6.5 1.836 1.836 0 0 1 2.82 0 31.3 31.3 0 0 1 4.41 6.5z" opacity="1" data-original="#f0c419"></path><circle cx="36" cy="17" r="3" fill="#9fc9d3" opacity="1" data-original="#9fc9d3" class=""></circle><path fill="#f29c1f" d="M38 26v9a1 1 0 0 1-1 1h-2a1 1 0 0 1-1-1v-9a2.006 2.006 0 0 1 2-2 2.015 2.015 0 0 1 2 2z" opacity="1" data-original="#f29c1f"></path><g fill="#f3d55b"><path d="M36 41a1 1 0 0 1-1-1v-1a1 1 0 0 1 2 0v1a1 1 0 0 1-1 1z" fill="#f3d55b" opacity="1" data-original="#f3d55b"></path><circle cx="36" cy="43" r="1" fill="#f3d55b" opacity="1" data-original="#f3d55b"></circle><path d="M30 39a1 1 0 0 1-1-1v-3a1 1 0 0 1 2 0v3a1 1 0 0 1-1 1zM42 39a1 1 0 0 1-1-1v-3a1 1 0 0 1 2 0v3a1 1 0 0 1-1 1z" fill="#f3d55b" opacity="1" data-original="#f3d55b"></path></g><rect width="9" height="22" y="36" fill="#3b97d3" rx="2" opacity="1" data-original="#3b97d3"></rect></g></g></svg>