<svg xmlns="http://www.w3.org/2000/svg" version="1.1" xmlns:xlink="http://www.w3.org/1999/xlink" width="512" height="512" x="0" y="0" viewBox="0 0 512 512" style="enable-background:new 0 0 512 512" xml:space="preserve" class="hovered-paths"><g><path fill="#231f20" d="M421.6 383.1c-1.6-12.7-5.7-25-12.1-36.1-13.9-23.9-37.9-41.6-64.8-48.2-15.7-3.8-32.9-3.1-48.4 1.1-33.8 9.3-60.6 35.8-70 69.6-5.6 20-4.9 41.6 2.3 61.2 1.6 4.3 3.3 8.5 5.5 12.5 17.2 32.3 51.1 53 87.7 53.3 9.7.1 19.4-1.2 28.7-4 23.9-7.1 45.1-23.1 58-44.5 11.5-19.3 16-42.6 13.1-64.9zm-12.1-6.9c-10.5-4.8-22-7.3-33.7-7.3-28.2 0-53.8 14.3-68.5 37.9-4-4.5-7.8-9.1-11.3-14 23.7-29.2 56.6-48.7 93.5-55.3 9.7 11 16.7 24.3 20 38.7zm-86.9-69c21.5 0 41.6 7.5 57.7 21.2-35.4 8-67 27.2-90.6 55.1-1.3-2.1-2.5-4.2-3.7-6.4 17.6-15.4 27.7-37.3 27.7-60.8 0-2.9-.2-5.8-.5-8.6 3.1-.3 6.2-.5 9.4-.5zm-49 14.6c.2-.2.5-.3.7-.4.2-.2.5-.3.7-.5 2.4-1.5 4.9-2.9 7.5-4.2.5-.3 1-.5 1.5-.8 2.7-1.2 5.4-2.4 8.2-3.5.4-.2.9-.3 1.3-.4 2.9-1 5.9-1.9 8.9-2.6h.1c.2 2.3.3 4.5.3 6.9 0 19.4-7.9 37.6-21.9 50.8-6.1-13.3-10.4-27.2-12.6-41.5 1.8-1.2 3.6-2.6 5.3-3.8zm-39.5 62.7c2.5-18.2 10.7-35.5 23.2-48.9.5-.6 1-1.2 1.6-1.7 2.7 13.9 7.2 27.5 13.4 40.3-11.4 7.8-24.5 12-38.5 12.2.1-.6.2-1.3.3-1.9zm-.9 12.8c15.9-.1 31.1-4.7 44.2-13.4 1.7 3 3.4 5.9 5.2 8.7-13.5 18.4-23.2 39.5-28.3 61.7-13.4-15.9-20.9-35.8-21.1-57zm65.8 85.4c-.9-.2-1.8-.5-2.7-.8-9.5-2.9-18.4-7.5-26.5-13.4-.7-.5-6.3-4.3-6.3-5.1 4-22 12.8-43.1 25.7-61.5 3.9 5.3 8.3 10.3 12.8 15.1-4.6 10.2-7.1 21.2-7.1 32.8 0 11.7 2.5 23.1 7.3 33.6-1.1-.2-2.1-.4-3.2-.7zm82.3-19c-.1.1-.2.3-.3.4-17.6 15.2-41.4 23.1-64.8 21.5-.3 0-.5 0-.8-.1-6.4-10.8-9.8-23-9.8-35.7 0-8.6 1.6-16.9 4.6-24.8 20.4 18.6 44.7 31.8 71.2 38.5.1.1 0 .2-.1.2zm30.1-59c-1.7 18.2-9.1 35.9-21.1 49.9-28.3-6-54.1-19.7-75.1-39.8 12.5-21.7 35.4-35.1 60.7-35.1 12.6 0 24.9 3.3 35.6 9.7.4 5.1.3 10.2-.1 15.3z" opacity="1" data-original="#231f20" class="hovered-path"></path><g fill="#38c674"><path d="M380.3 328.4c-35.4 8-67 27.2-90.6 55.1-1.3-2.1-2.5-4.2-3.7-6.4 17.6-15.4 27.7-37.3 27.7-60.8 0-2.9-.2-5.8-.5-8.6 3.1-.3 6.2-.5 9.4-.5 21.5 0 41.6 7.5 57.7 21.2z" fill="#38c674" opacity="1" data-original="#38c674"></path><path d="M302.9 316.4c0 19.4-7.9 37.6-21.9 50.8-6.1-13.3-10.4-27.2-12.6-41.5 1.7-1.3 3.5-2.6 5.2-3.8.2-.2.5-.3.7-.4.2-.2.5-.3.7-.5 2.4-1.5 4.9-2.9 7.5-4.2.5-.3 1-.5 1.5-.8 2.7-1.2 5.4-2.4 8.2-3.5.4-.2.9-.3 1.3-.4 2.9-1 5.9-1.9 8.9-2.6h.1c.3 2.2.4 4.5.4 6.9zM272.3 374.2c-11.4 7.8-24.5 12-38.5 12.2.1-.6.1-1.3.2-2 2.5-18.2 10.7-35.5 23.2-48.9.5-.6 1-1.2 1.6-1.7 2.8 14 7.3 27.6 13.5 40.4zM282.6 392.5c-13.5 18.4-23.2 39.5-28.3 61.7-13.5-15.9-21-35.7-21.1-57 15.9-.1 31.1-4.7 44.2-13.4 1.7 3 3.4 5.9 5.2 8.7zM302.2 483.5c-1.1-.3-2.2-.4-3.2-.8-.9-.2-1.8-.5-2.7-.8-9.5-2.9-18.4-7.5-26.5-13.4-.7-.5-6.3-4.3-6.3-5.1 4-22 12.8-43.1 25.7-61.5 3.9 5.3 8.3 10.3 12.8 15.1-4.6 10.2-7.1 21.2-7.1 32.8 0 11.7 2.5 23.1 7.3 33.7zM381.5 463.6c-.1.1-.1.2-.2.2-.1.1-.2.3-.3.4-17.6 15.2-41.4 23.1-64.8 21.5-.3 0-.5 0-.8-.1-6.4-10.8-9.8-23-9.8-35.7 0-8.6 1.6-16.9 4.6-24.8 20.4 18.6 44.7 31.7 71.3 38.5zM411.4 404.7c-1.7 18.2-9.1 35.9-21.1 49.9-28.3-6-54.1-19.7-75.1-39.8 12.5-21.7 35.4-35.1 60.7-35.1 12.6 0 24.9 3.3 35.6 9.7.4 5.1.3 10.2-.1 15.3z" fill="#38c674" opacity="1" data-original="#38c674"></path><path d="M409.5 376.2c-10.5-4.8-22-7.3-33.7-7.3-28.2 0-53.8 14.3-68.5 37.9-4-4.5-7.8-9.1-11.3-14 23.7-29.2 56.6-48.7 93.5-55.3 9.7 11 16.7 24.3 20 38.7z" fill="#38c674" opacity="1" data-original="#38c674"></path></g><path fill="#231f20" d="M412.2 15.5c-54.5 0-98.8 44.3-98.8 98.9 0 54.5 44.3 98.8 98.8 98.8s98.8-44.3 98.8-98.8c0-54.6-44.3-98.9-98.8-98.9zm0 186.9c-48.5 0-88-39.5-88-88 0-48.6 39.5-88.1 88-88.1s88 39.5 88 88.1c0 48.5-39.5 88-88 88z" opacity="1" data-original="#231f20" class="hovered-path"></path><path fill="#d3dcfb" d="M412.2 26.3c-48.5 0-88 39.5-88 88.1 0 48.5 39.5 88 88 88s88-39.5 88-88c0-48.7-39.5-88.1-88-88.1zm-5.4 15.3c0-3 2.4-5.4 5.4-5.4s5.4 2.4 5.4 5.4v9.6c0 3-2.4 5.4-5.4 5.4s-5.4-2.4-5.4-5.4zm-57.7 78.1h-9.7c-3 0-5.4-2.4-5.4-5.4s2.4-5.4 5.4-5.4h9.7c3 0 5.4 2.4 5.4 5.4s-2.4 5.4-5.4 5.4zm68.5 67.3c0 3-2.4 5.4-5.4 5.4s-5.4-2.4-5.4-5.4v-9.6c0-3 2.4-5.4 5.4-5.4s5.4 2.4 5.4 5.4zm-5.4-63.5c-.4 0-.9-.1-1.2-.2l-26.3 27.2c-1.1 1.1-2.5 1.6-3.9 1.6-1.3 0-2.7-.5-3.7-1.5-2.2-2-2.2-5.4-.2-7.6l26.3-27.1c-.1-.5-.2-1-.2-1.6 0-1.8.5-3.5 1.4-4.9l-21.1-53c-1.1-2.8.3-5.9 3-7 2.8-1.1 5.9.2 7 3l21.1 53c3.9 1 6.9 4.6 6.9 8.9.1 5.1-4 9.2-9.1 9.2zm72.8-3.8h-9.7c-3 0-5.4-2.4-5.4-5.4s2.4-5.4 5.4-5.4h9.7c3 0 5.4 2.4 5.4 5.4-.1 3-2.5 5.4-5.4 5.4z" opacity="1" data-original="#d3dcfb" class=""></path><g fill="#231f20"><path d="M421.4 114.3c0 5-4.1 9.2-9.2 9.2-.4 0-.9-.1-1.2-.2l-26.3 27.2c-1.1 1.1-2.5 1.6-3.9 1.6-1.3 0-2.7-.5-3.7-1.5-2.2-2-2.2-5.4-.2-7.6l26.3-27.1c-.1-.5-.2-1-.2-1.6 0-1.8.5-3.5 1.4-4.9l-21.1-53c-1.1-2.8.3-5.9 3-7 2.8-1.1 5.9.2 7 3l21.1 53c4 1.1 7 4.6 7 8.9zM417.6 41.6v9.6c0 3-2.4 5.4-5.4 5.4s-5.4-2.4-5.4-5.4v-9.6c0-3 2.4-5.4 5.4-5.4s5.4 2.4 5.4 5.4zM417.6 177.4v9.6c0 3-2.4 5.4-5.4 5.4s-5.4-2.4-5.4-5.4v-9.6c0-3 2.4-5.4 5.4-5.4s5.4 2.5 5.4 5.4zM354.5 114.3c0 3-2.4 5.4-5.4 5.4h-9.7c-3 0-5.4-2.4-5.4-5.4s2.4-5.4 5.4-5.4h9.7c3 0 5.4 2.4 5.4 5.4zM490.3 114.3c0 3-2.4 5.4-5.4 5.4h-9.7c-3 0-5.4-2.4-5.4-5.4s2.4-5.4 5.4-5.4h9.7c3 0 5.4 2.4 5.4 5.4zM53 236.7c0-3-2.5-5.5-5.5-5.5s-5.5 2.5-5.5 5.5c.1 13.5 1.3 26.8 3.7 39.9.5 2.6 2.8 4.4 5.4 4.4.3 0 .7 0 1-.1 3-.5 4.9-3.4 4.4-6.4-2.3-12.3-3.5-25-3.5-37.8zM203.1 434.9c-12.2-3.4-24.1-8-35.5-13.7-2.7-1.3-6-.2-7.3 2.5s-.2 6 2.5 7.3c12 6 24.6 10.8 37.4 14.5.5.1 1 .2 1.5.2 2.4 0 4.6-1.5 5.3-3.9.7-3.1-1-6.1-3.9-6.9zM200.8 38.1c.5 0 1-.1 1.5-.2 12.2-3.5 24.8-5.9 37.4-7.1 3-.3 5.2-3 4.9-6s-3-5.3-6-4.9c-13.3 1.3-26.6 3.8-39.4 7.4-2.9.8-4.6 3.9-3.7 6.8.7 2.5 2.9 4 5.3 4zM107 375.6c-2-2.2-5.5-2.4-7.7-.3-2.2 2-2.4 5.5-.4 7.7 9 9.8 19 18.9 29.7 27 1 .7 2.1 1.1 3.3 1.1 1.6 0 3.3-.8 4.4-2.2 1.8-2.4 1.3-5.9-1.1-7.7-10.1-7.7-19.6-16.3-28.2-25.6zM277.7 30.7c12.7 1.1 25.3 3.4 37.5 6.8.5.1 1 .2 1.5.2 2.4 0 4.6-1.5 5.2-4 .8-2.9-.9-5.9-3.8-6.7-12.8-3.6-26.1-6-39.4-7.2-3-.3-5.7 1.9-6 4.9-.2 3.1 2 5.8 5 6zM67 311.2c-1.1-2.8-4.2-4.2-7.1-3.1-2.8 1.1-4.2 4.3-3.1 7.1 4.9 12.4 10.9 24.5 17.9 35.8 1 1.6 2.8 2.6 4.6 2.6 1 0 2-.3 2.9-.8 2.6-1.6 3.3-5 1.7-7.5-6.6-10.9-12.3-22.3-16.9-34.1zM471.2 229.9c-3 0-5.5 2.5-5.5 5.5v.9c0 12.7-1.1 25.5-3.5 37.9-.5 3 1.4 5.9 4.4 6.4.4.1.7.1 1 .1 2.6 0 4.9-1.8 5.4-4.4 2.4-13.1 3.7-26.5 3.7-39.9v-.9c-.1-3.1-2.5-5.6-5.5-5.6zM458.9 307.6c-2.8-1-6 .3-7.1 3.2-4.5 11.8-10.3 23.2-17 34.1-1.6 2.6-.8 5.9 1.7 7.5.9.5 1.9.8 2.9.8 1.8 0 3.6-.9 4.6-2.6 7.1-11.4 13.1-23.5 17.9-35.9 1.2-2.8-.2-6-3-7.1zM220.4 70.1c-1.5-1.5-3.6-2.3-5.7-2l-8.3.8c-2.2-.8-4.2-1.9-5.8-3.5-1.7-1.7-2.6-3.5-3.2-4.6-.8-1.9-2.5-3.2-4.6-3.3-1.7-.2-3.5-.2-5.3-.3-6.3-.2-12.6-.2-18.6.3-12.7.9-25.2 3.1-37.3 6.6-3-1.1-6.1-1.9-9.3-2.5l-1.8-.3-.5-.1c-3.5-.4-7-.5-10.5-.3-8.1-5.3-16.6-10-25.5-13.8-8.8-3.8-18-7-27.2-9.2-2.1-.5-4.2-1-6.1-1.4-2-.4-4.2.3-5.4 1.9-1.1 1.5-2.4 2.7-3.8 3.7-2.2 1.5-4.3 2.3-6 2.8l-7.2-2.8a7 7 0 0 0-6 .4c-1.8 1.1-3.1 2.9-3.3 5L1.1 175c-.4 3.1 1.3 6.2 4.3 7.3l80.7 31.9c.2.1.4.1.6.2.2 0 .4.2.6.2l23.4 3.2c.3.1.5.1.8.1h.5l86.4-8.7c3.2-.3 5.7-2.8 6.1-5.9l17.7-127.5c.3-2.1-.4-4.2-1.8-5.7zm-96.7 2.8c1.9.5 3.8 1.1 5.6 1.8 1.1.5 2.4.5 3.6.2 11.9-3.6 24.2-5.9 36.7-6.7 5.8-.4 11.5-.5 17.5-.3.6.1 1.3.1 1.9.1.5.8 1 1.6 1.7 2.4l-30.6 3.1-30.4 3-6.4-.9zM51.4 47.7l2.7.6c8.7 2.2 17.3 5.1 25.5 8.6 8.8 3.9 17.4 8.6 25.3 13.9 1 .8 2.3 1 3.6.9 1.5-.2 2.9-.2 4.5-.2l-.4 2.6-5.1-.7c-17.4-6.8-34.8-13.8-52.3-20.7-.8-.3-1.6-.6-2.4-1L48.5 50c1.1-.6 2-1.5 2.9-2.3zm32.3 154-71.5-28.3L28.8 53.9l4 1.6s0 .1.1.1l2.6 1c3.3 1.3 6.7 2.6 10.1 4l54.7 21.6zm23.2 4.8-12.7-1.8 8.4-59.9 8.3-59.9 12.7 1.7zm87.4-7.8-76.5 7.7 12.5-89.5 4.2-30 40.3-4.1 31.6-3.2h.1l4.6-.4z" fill="#231f20" opacity="1" data-original="#231f20" class="hovered-path"></path></g><path fill="#d3dcfb" d="m190.7 70.4-30.6 3.1-30.4 3-6.4-.9.4-2.8c1.9.5 3.8 1.1 5.6 1.8 1.1.5 2.4.5 3.6.2 11.9-3.6 24.2-5.9 36.7-6.7 5.8-.4 11.5-.5 17.5-.3.6.1 1.3.1 1.9.1.5.8 1 1.7 1.7 2.5zM113 71.6l-.4 2.6-5.1-.7c-17.4-6.8-34.8-13.8-52.3-20.7-.8-.3-1.6-.6-2.4-1l-4.3-1.7c1-.8 1.9-1.6 2.8-2.5l2.7.6c8.7 2.2 17.3 5.1 25.5 8.6 8.8 3.9 17.4 8.6 25.3 13.9 1 .8 2.3 1 3.6.9z" opacity="1" data-original="#d3dcfb" class=""></path><path fill="#ffe98d" d="M45.6 60.6c-3.3-1.3-6.7-2.6-10.1-4l-2.6-1c-.1 0-.1-.1-.1-.1l-4-1.6-16.6 119.6 71.5 28.3 16.6-119.5zm42.6 71.8c-.8.5-1.8.8-2.7.8-.6 0-1.3-.1-2-.4l-55.4-21.9c-2.3-.9-3.7-3.3-3.3-5.8l4.5-32.2c.2-1.7 1.2-3.1 2.6-3.9s3.1-1 4.7-.4l55.4 22c2.3.9 3.7 3.3 3.3 5.7l-4.5 32.3c-.2 1.5-1.2 2.9-2.6 3.8zM206.3 79.7c-.1 0-.1 0 0 0l-31.7 3.2-40.3 4.1-4.2 30-12.5 89.5 76.5-7.7 16.6-119.5zm-5.5 49.9c-.4 2.4-2.4 4.4-4.8 4.6l-59.3 6c-.2.1-.4.1-.5.1-1.5 0-2.9-.6-3.9-1.7-1.1-1.2-1.7-2.9-1.5-4.5l4.5-32.2c.3-2.5 2.3-4.4 4.8-4.6l59.2-6c1.7-.2 3.3.4 4.5 1.6 1.1 1.2 1.7 2.9 1.5 4.5z" opacity="1" data-original="#ffe98d" class=""></path><path fill="#335296" d="m123.5 86.6-16.6 119.9-12.7-1.8 8.3-59.9 8.3-60z" opacity="1" data-original="#335296"></path><path fill="#231f20" d="m91.9 90.5-55.4-22c-1.6-.6-3.3-.4-4.7.4-1.5.8-2.4 2.3-2.6 3.9L24.7 105c-.3 2.5 1 4.9 3.3 5.8l55.4 21.9c.6.3 1.3.4 2 .4.9 0 1.9-.3 2.7-.8 1.5-.8 2.4-2.3 2.6-3.9l4.5-32.3c.4-2.3-.9-4.7-3.3-5.6zM81 120.2l-45-17.8 3-21.2L84 99z" opacity="1" data-original="#231f20" class="hovered-path"></path><path fill="#335296" d="m84 99-3 21.2-45-17.8 3-21.3z" opacity="1" data-original="#335296"></path><path fill="#231f20" d="M203.9 92.8c-1.2-1.2-2.8-1.8-4.5-1.6l-59.2 6c-2.5.3-4.5 2.2-4.8 4.6l-4.5 32.2c-.2 1.6.3 3.3 1.5 4.5 1 1.1 2.4 1.7 3.9 1.7.2 0 .3 0 .5-.1l59.3-6c2.4-.2 4.4-2.2 4.8-4.6l4.5-32.3c.1-1.5-.4-3.2-1.5-4.4zm-13.2 31-48.2 4.9 3-21.2 48.2-4.9z" opacity="1" data-original="#231f20" class="hovered-path"></path><path fill="#335296" d="m193.7 102.6-3 21.2-48.2 4.9 2.9-21.2z" opacity="1" data-original="#335296"></path></g></svg>