<svg xmlns="http://www.w3.org/2000/svg" version="1.1" xmlns:xlink="http://www.w3.org/1999/xlink" width="512" height="512" x="0" y="0" viewBox="0 0 512 512" style="enable-background:new 0 0 512 512" xml:space="preserve" class=""><g><g fill-rule="evenodd" clip-rule="evenodd"><path fill="#6b9ca6" d="M31.639 33.776h448.723v298.082H31.639z" opacity="1" data-original="#6b9ca6" class=""></path><path fill="#406a80" d="M256 33.776h224.361v298.082H256z" opacity="1" data-original="#406a80"></path><path fill="#fbe0c7" d="M12.388 328.258h487.225c6.822 0 12.387 5.565 12.387 12.387v12.601c0 6.822-5.564 12.387-12.387 12.387H12.388c-6.823 0-12.387-5.564-12.387-12.387v-12.601c0-6.822 5.564-12.387 12.387-12.387z" opacity="1" data-original="#fbe0c7" class=""></path><path fill="#f7ceb0" d="M.001 346.946H512v6.301c0 6.822-5.564 12.387-12.387 12.387H12.388c-6.823 0-12.387-5.564-12.387-12.387v-6.301z" opacity="1" data-original="#f7ceb0" class=""></path><path fill="#fbe0c7" d="M12.388.001h487.225C506.435.001 512 5.565 512 12.388v12.601c0 6.822-5.564 12.387-12.387 12.387H12.388C5.565 37.376.001 31.812.001 24.989V12.388C.001 5.565 5.565.001 12.388.001z" opacity="1" data-original="#fbe0c7" class=""></path><path fill="#f7ceb0" d="M.001 18.688H512v6.301c0 6.822-5.564 12.387-12.387 12.387H12.388C5.565 37.376.001 31.812.001 24.989v-6.301z" opacity="1" data-original="#f7ceb0" class=""></path><path fill="#cfe6e6" d="M79.329 105.093a8.259 8.259 0 0 1 0-16.516h353.342c4.561 0 8.258 3.697 8.258 8.258s-3.697 8.258-8.258 8.258zm0 70.583a8.258 8.258 0 0 1 0-16.516h55.123a8.258 8.258 0 1 1 0 16.516zm0 70.584a8.258 8.258 0 0 1 0-16.516h55.123a8.258 8.258 0 1 1 0 16.516z" opacity="1" data-original="#cfe6e6" class=""></path><path fill="#a3c6cc" d="M256 105.093V88.577h176.671c4.561 0 8.258 3.697 8.258 8.258s-3.697 8.258-8.258 8.258zm121.548 70.583c-4.561 0-8.258-3.697-8.258-8.258s3.697-8.258 8.258-8.258h55.123a8.258 8.258 0 0 1 0 16.516zm0 70.584c-4.561 0-8.258-3.697-8.258-8.258s3.697-8.258 8.258-8.258h55.123c4.561 0 8.258 3.697 8.258 8.258s-3.697 8.258-8.258 8.258z" opacity="1" data-original="#a3c6cc" class=""></path><circle cx="256.001" cy="218.796" r="72.777" fill="#fbe0c7" transform="rotate(-14.53 255.832 218.664)" opacity="1" data-original="#fbe0c7" class=""></circle><path fill="#99ccff" d="M180.883 306.293h18.462c16.593 9.849 35.962 15.509 56.656 15.509 20.695 0 40.063-5.66 56.657-15.509h18.46c25.423 0 46.227 20.801 46.227 46.227v147.094c0 6.823-5.564 12.387-12.387 12.387H147.044c-6.822 0-12.387-5.565-12.387-12.387V352.519c0-25.425 20.801-46.226 46.226-46.226z" opacity="1" data-original="#99ccff"></path><path fill="#8095ff" d="M256.002 321.802c20.695 0 40.063-5.66 56.657-15.509h18.46c25.423 0 46.227 20.802 46.227 46.227v147.095c0 6.822-5.564 12.387-12.387 12.387H256.002z" opacity="1" data-original="#8095ff"></path><path fill="#f7ceb0" d="M256.001 146.018c40.194 0 72.777 32.584 72.777 72.778 0 40.193-32.583 72.777-72.777 72.777z" opacity="1" data-original="#f7ceb0" class=""></path></g></g></svg>