<svg xmlns="http://www.w3.org/2000/svg" version="1.1" xmlns:xlink="http://www.w3.org/1999/xlink" width="512" height="512" x="0" y="0" viewBox="0 0 512 512" style="enable-background:new 0 0 512 512" xml:space="preserve" class=""><g><path d="M256 51.579c-2.61 0-5.129-.398-7.5-1.136v35.75h15v-35.75a25.164 25.164 0 0 1-7.5 1.136z" style="" fill="#135693" data-original="#135693" class=""></path><circle cx="256" cy="26.29" r="26.29" style="" fill="#6bc1dd" data-original="#6bc1dd" class=""></circle><g style="opacity:0.15;"><path d="M251.839 26.29c0-10.565 6.235-19.67 15.226-23.849A26.192 26.192 0 0 0 256 0c-14.52 0-26.29 11.771-26.29 26.29S241.48 52.579 256 52.579c3.954 0 7.7-.878 11.065-2.441-8.991-4.178-15.226-13.283-15.226-23.848z" style="" fill="#440075" data-original="#440075" class=""></path></g><path d="M423.574 127.228h-15.503v143.018h15.503c8.499 0 15.453-6.953 15.453-15.452V142.68c0-8.498-6.954-15.452-15.453-15.452zM103.929 127.228H87.403c-8.499 0-15.452 6.954-15.452 15.452v112.113c0 8.499 6.953 15.452 15.452 15.452h16.525l.001-143.017z" style="" fill="#9ea7af" data-original="#9ea7af"></path><path d="M114.467 457.353H93.231a34.858 34.858 0 0 1-19.573-5.976v50.32c0 5.666 4.636 10.302 10.302 10.302h30.507v-54.646zM418.769 457.353h-21.235V512h30.507c5.666 0 10.302-4.636 10.302-10.302v-50.319a34.878 34.878 0 0 1-19.574 5.974z" style="" fill="#c5ccd3" data-original="#c5ccd3" class=""></path><path d="M95.292 501.698v-44.345h-2.061a34.858 34.858 0 0 1-19.573-5.976v50.32c0 5.666 4.636 10.302 10.302 10.302h21.634c-5.666.001-10.302-4.635-10.302-10.301z" style="opacity:0.15;enable-background:new ;" fill="#440075" data-original="#440075" class=""></path><path d="M114.467 378.592H93.231c-19.344 0-35.026 15.682-35.026 35.026v10.302c0 19.344 15.683 35.025 35.026 35.025h21.235l.001-80.353zM418.769 378.592h-21.235v80.354h21.235c19.345 0 35.026-15.682 35.026-35.025v-10.302c0-19.346-15.682-35.027-35.026-35.027z" style="" fill="#e6e9ed" data-original="#e6e9ed"></path><g style="opacity:0.15;"><path d="M82.93 423.92v-10.302c0-19.345 15.682-35.026 35.026-35.026H93.231c-19.344 0-35.026 15.682-35.026 35.026v10.302c0 19.344 15.683 35.025 35.026 35.025h24.725c-19.345 0-35.026-15.681-35.026-35.025z" style="" fill="#440075" data-original="#440075" class=""></path></g><path d="M221.81 310.05h68.39v25.556h-68.39z" style="" fill="#9ea7af" data-original="#9ea7af"></path><path d="M221.81 310.05h24.921v25.556H221.81z" style="opacity:0.15;enable-background:new ;" fill="#440075" data-original="#440075" class=""></path><path d="M336.449 360v-16.625c0-4.886-3.998-8.884-8.884-8.884H181.44c-4.887 0-8.885 3.998-8.885 8.884V360h163.894z" style="" fill="#c5ccd3" data-original="#c5ccd3" class=""></path><path d="M203.366 360v-16.625c0-4.886 3.998-8.884 8.886-8.884H181.44c-4.887 0-8.885 3.998-8.885 8.884V360h30.811z" style="opacity:0.15;enable-background:new ;" fill="#440075" data-original="#440075" class=""></path><path d="M383.08 358.245H128.92c-8.499 0-15.453 6.954-15.453 15.453V512h285.066V373.698c0-8.499-6.953-15.453-15.453-15.453z" style="" fill="#9ea7af" data-original="#9ea7af"></path><g style="opacity:0.15;"><path d="M158.427 358.245H128.92c-8.499 0-15.453 6.954-15.453 15.453V512h29.507V373.698c0-8.499 6.954-15.453 15.453-15.453z" style="" fill="#440075" data-original="#440075" class=""></path></g><path d="M409.071 295.787c0 8.499-6.954 15.452-15.452 15.452H118.381c-8.498 0-15.452-6.953-15.452-15.452V100.646c0-8.499 6.954-15.452 15.452-15.452h275.238c8.498 0 15.452 6.953 15.452 15.452v195.141z" style="" fill="#c5ccd3" data-original="#c5ccd3" class=""></path><g style="opacity:0.15;"><path d="M132.378 295.787V100.646c0-8.499 6.954-15.452 15.453-15.452h-29.45c-8.498 0-15.452 6.953-15.452 15.452v195.142c0 8.499 6.954 15.452 15.452 15.452h29.45c-8.499-.001-15.453-6.954-15.453-15.453z" style="" fill="#440075" data-original="#440075" class=""></path></g><path d="M372.504 198.507c0 29.479-23.897 53.372-53.374 53.372H192.871c-29.479 0-53.375-23.894-53.375-53.372s23.896-53.372 53.375-53.372H319.13c29.477 0 53.374 23.894 53.374 53.372z" style="" fill="#135693" data-original="#135693" class=""></path><g style="opacity:0.15;"><path d="M169.465 198.507c0-29.478 23.896-53.372 53.375-53.372h-29.969c-29.479 0-53.375 23.895-53.375 53.372 0 29.479 23.896 53.372 53.375 53.372h29.969c-29.479 0-53.375-23.894-53.375-53.372z" style="" fill="#440075" data-original="#440075" class=""></path></g><ellipse cx="187.54" cy="198.51" rx="20.754" ry="20.836" style="" fill="#6bc1dd" data-original="#6bc1dd" class=""></ellipse><ellipse cx="324.86" cy="198.51" rx="20.754" ry="20.836" style="" fill="#6bc1dd" data-original="#6bc1dd" class=""></ellipse><path d="M348.072 512v-89.81c0-5.666-4.636-10.302-10.302-10.302H174.23c-5.666 0-10.302 4.636-10.302 10.302V512h184.144z" style="" fill="#135693" data-original="#135693" class=""></path><path d="M274.543 512v-28.966a3.1 3.1 0 0 0-3.09-3.091h-30.906a3.1 3.1 0 0 0-3.09 3.091V512h37.086z" style="" fill="#ffc502" data-original="#ffc502"></path><path d="M212.732 444.133h-23.694c-4.143 0-7.5-3.357-7.5-7.5s3.357-7.5 7.5-7.5h23.694c4.143 0 7.5 3.357 7.5 7.5a7.5 7.5 0 0 1-7.5 7.5zM202.431 462.441h-13.393c-4.143 0-7.5-3.357-7.5-7.5s3.357-7.5 7.5-7.5h13.393c4.143 0 7.5 3.357 7.5 7.5s-3.358 7.5-7.5 7.5zM212.732 480.752h-23.694a7.5 7.5 0 0 1-7.5-7.5c0-4.143 3.357-7.5 7.5-7.5h23.694c4.143 0 7.5 3.357 7.5 7.5s-3.357 7.5-7.5 7.5zM199.34 499.06h-10.302a7.499 7.499 0 0 1-7.5-7.5 7.5 7.5 0 0 1 7.5-7.5h10.302a7.5 7.5 0 0 1 7.5 7.5 7.5 7.5 0 0 1-7.5 7.5z" style="" fill="#c5ccd3" data-original="#c5ccd3" class=""></path><path d="M319.561 491.526h-18.288c-4.339 0-7.855-3.517-7.855-7.857s3.517-7.856 7.855-7.856h18.288a7.857 7.857 0 1 1 0 15.713z" style="" fill="#e6e9ed" data-original="#e6e9ed"></path><circle cx="310.42" cy="447.8" r="16.5" style="" fill="#5dc647" data-original="#5dc647"></circle><path d="M275 456.428a3.175 3.175 0 0 1-3.166 3.166h-31.668a3.175 3.175 0 0 1-3.166-3.166v-17.264a3.176 3.176 0 0 1 3.166-3.167h31.668a3.176 3.176 0 0 1 3.166 3.167v17.264z" style="" fill="#6bc1dd" data-original="#6bc1dd" class=""></path></g></svg>