<svg xmlns="http://www.w3.org/2000/svg" version="1.1" xmlns:xlink="http://www.w3.org/1999/xlink" width="512" height="512" x="0" y="0" viewBox="0 0 512 512" style="enable-background:new 0 0 512 512" xml:space="preserve" class=""><g><g fill-rule="evenodd" clip-rule="evenodd"><path fill="#ffe177" d="M188.514 229.755a101.742 101.742 0 0 1 29.788 12.349l19.357-8.597 22.814 22.813-8.594 19.351a101.753 101.753 0 0 1 12.352 29.796l19.748 7.602v32.263l-19.753 7.604a101.742 101.742 0 0 1-12.349 29.788l8.597 19.357-22.813 22.814-19.351-8.594a101.723 101.723 0 0 1-29.796 12.351l-7.601 19.749H148.65l-7.604-19.754a101.715 101.715 0 0 1-29.788-12.349l-19.357 8.597-22.814-22.813 8.594-19.351a101.718 101.718 0 0 1-12.351-29.797l-19.749-7.601V313.07l19.752-7.603a101.697 101.697 0 0 1 12.35-29.791l-8.596-19.354L91.9 233.507l19.357 8.597a101.726 101.726 0 0 1 29.788-12.349l7.604-19.753h32.263z" opacity="1" data-original="#ffe177" class=""></path><path fill="#ffd064" d="m231.159 236.395 6.5-2.887 22.814 22.813-8.594 19.351a101.753 101.753 0 0 1 12.352 29.796l19.748 7.602v32.263l-19.753 7.603a101.72 101.72 0 0 1-12.349 29.789l8.597 19.357-22.813 22.814-6.5-2.887 19.926-19.927-8.597-19.357a101.75 101.75 0 0 0 12.35-29.789l19.753-7.603V313.07l-19.748-7.602a101.73 101.73 0 0 0-12.352-29.796l8.594-19.351zm-142.147-.001 2.886-2.887 19.357 8.597c-1.368.758-2.72 1.547-4.054 2.369zm99.502-6.639a101.704 101.704 0 0 1 29.788 12.349l-5.333 2.369c-9.212-5.672-23.318-12.214-33.842-14.718l-7.604-19.753h9.387zm-77.258 186.544-19.357 8.597-2.887-2.887 18.19-8.079c1.334.821 2.686 1.611 4.054 2.369zm107.053.002a101.723 101.723 0 0 1-29.796 12.351l-7.601 19.749h-9.387l7.601-19.749c10.527-2.505 24.636-9.046 33.85-14.72z" opacity="1" data-original="#ffd064"></path><circle cx="164.779" cy="329.201" r="58.782" fill="#eceff1" transform="rotate(-45 164.731 329.256)" opacity="1" data-original="#eceff1" class=""></circle><path fill="#d1d1d6" d="M164.779 270.419c1.338 0 2.665.049 3.981.137-30.606 2.048-54.801 27.52-54.801 58.645s24.195 56.597 54.801 58.645a59.641 59.641 0 0 1-3.981.137c-32.464 0-58.782-26.318-58.782-58.782 0-32.463 26.318-58.782 58.782-58.782zM461.178 35.651c10.825 18.749 4.341 42.945-14.408 53.77-37.689 21.76-63.615-31.459-47.228-3.076 6.939 12.019 2.783 27.529-9.235 34.468-12.019 6.939-27.529 2.783-34.468-9.236l-2.298-3.98c6.663 11.541-9.893 26.857-23.668 9.99a16.156 16.156 0 0 1 5.654-22.558 16.336 16.336 0 0 1 9.525-2.136l-2.298-3.979c-6.939-12.019-2.783-27.529 9.236-34.468s27.529-2.783 34.468 9.235c16.386 28.382-16.74-20.679 20.949-42.439 18.75-10.823 42.946-4.34 53.771 14.409z" opacity="1" data-original="#d1d1d6"></path><path fill="#c4e2ff" d="M270.003 117.67h81.709v138.223c48.137 16.867 82.662 62.693 82.662 116.59 0 68.216-55.3 123.516-123.516 123.516s-123.516-55.3-123.516-123.516c0-53.897 34.524-99.723 82.662-116.59V117.67z" opacity="1" data-original="#c4e2ff" class=""></path><path fill="#add5fa" d="M341.712 117.67h10v138.223c48.137 16.867 82.662 62.693 82.662 116.59 0 68.216-55.3 123.516-123.516 123.516-1.676 0-3.341-.043-5-.109 65.897-2.625 118.516-56.867 118.516-123.407 0-53.897-34.524-99.723-82.662-116.59z" opacity="1" data-original="#add5fa"></path><path fill="#fe646f" d="M424.648 324.723c6.394 15.053 9.726 31.017 9.726 47.76 0 68.216-55.3 123.516-123.516 123.516-56.193 0-103.622-37.524-118.594-88.883 9.658-19.22 24.57-39.109 53.186-49.484 57.236-20.752 73.673 36.163 130.908 15.412 28.617-10.375 38.275-29.595 48.29-48.321z" opacity="1" data-original="#fe646f"></path><path fill="#fd4755" d="M424.648 324.723c6.394 15.053 9.726 31.017 9.726 47.76 0 68.216-55.3 123.516-123.516 123.516-1.712 0-3.415-.036-5.109-.105 65.948-2.569 118.625-56.834 118.625-123.411 0-12.75-1.932-25.048-5.677-36.836 2.064-3.614 4.001-7.278 5.951-10.924zm-159.74 28.489c30.269 2.49 48.994 26.955 81.99 24.253-30.269-2.488-48.994-26.953-81.99-24.253z" opacity="1" data-original="#fd4755"></path><path fill="#c4e2ff" d="M253.041 117.67h115.634c3.823 0 6.951 3.128 6.951 6.951v10.742c0 3.822-3.128 6.951-6.951 6.951H253.041c-3.823 0-6.951-3.128-6.951-6.951v-10.742c0-3.823 3.128-6.951 6.951-6.951z" opacity="1" data-original="#c4e2ff" class=""></path><path fill="#add5fa" d="M365.624 117.67h3.05c3.823 0 6.951 3.128 6.951 6.951v10.742c0 3.822-3.128 6.951-6.951 6.951H253.041c-3.823 0-6.951-3.128-6.951-6.951v-3.05h112.584c3.823 0 6.951-3.128 6.951-6.951v-7.692z" opacity="1" data-original="#add5fa"></path><path fill="#242222" d="M457.331 63.448c-2.179 8.118-7.351 14.89-14.57 19.055-14.961 8.636-34.148 3.506-42.812-11.431l-.028-.047c-8.65-14.98-3.502-34.195 11.478-42.845 14.98-8.645 34.2-3.492 42.841 11.483 4.169 7.214 5.27 15.662 3.091 23.785zM394.3 103.423c1.2-4.466.589-9.107-1.689-13.069l-6.542-11.328c-.019-.019-.028-.038-.038-.057l-6.513-11.276c-2.278-3.963-6-6.805-10.467-8-4.461-1.195-9.102-.593-13.074 1.694-8.227 4.749-11.05 15.309-6.297 23.54l2.292 3.977a7.98 7.98 0 0 1-.174 8.278 7.985 7.985 0 0 1-7.407 3.694 8.324 8.324 0 0 0-4.871 1.092 8.157 8.157 0 0 0-3.859 5.092 7.98 7.98 0 0 0-.212 2.621h10.368c-.918-3.417.513-7.149 3.713-9.003 3.831-2.207 8.721-.899 10.928 2.927l2.301 3.982c.419.734.908 1.431 1.431 2.094h4.48c4.979 0 9.389 2.461 12.109 6.221a16.986 16.986 0 0 0 5.52-2.009c3.959-2.286 6.802-6.004 8.001-10.47zm-26.679 30.9H254.084v-8.645h113.537zM349.06 263.452c30.012 10.518 53.622 32.67 66.499 60.324-8.989 17.761-17.719 32.976-41.937 41.758-25.423 9.215-41.071 1.53-59.199-7.365-18.698-9.182-39.89-19.582-71.708-8.047-22.698 8.231-36.482 24.82-45.956 40.487a116.145 116.145 0 0 1-1.426-18.119c0-49.015 31.07-92.834 77.309-109.038a7.998 7.998 0 0 0 5.356-7.549V150.324h65.703v105.579a7.997 7.997 0 0 0 5.359 7.549zm-38.21 224.556c63.698 0 115.518-51.82 115.518-115.518 0-9.761-1.257-19.314-3.6-28.487-8.617 14.382-20.716 28.242-43.688 36.572-31.819 11.535-53.011 1.134-71.708-8.048-18.128-8.895-33.781-16.58-59.204-7.365-24.642 8.932-36.779 30.764-45.467 47.919 16.468 43.735 58.729 74.927 108.149 74.927zM179.335 372.49c0-26.967 8.264-52.559 22.745-73.883-9.13-11.14-22.717-17.667-37.306-17.667-26.618 0-48.272 21.653-48.272 48.271 0 26.614 21.653 48.267 48.272 48.267 5.012 0 9.902-.758 14.594-2.25-.018-.907-.033-1.82-.033-2.738zm7.323 48.389c.574-.136 1.148-.287 1.727-.438a130.221 130.221 0 0 1-7.676-28.967 64.155 64.155 0 0 1-15.935 2.005c-35.442 0-64.273-28.83-64.273-64.268s28.83-64.268 64.273-64.268c18.204 0 35.24 7.61 47.307 20.764 10.368-11.817 22.872-21.828 37.076-29.376l-13.276-13.276-14.335 6.368a7.998 7.998 0 0 1-7.445-.499 93.657 93.657 0 0 0-27.442-11.38 7.984 7.984 0 0 1-5.615-4.908l-5.633-14.627h-21.277l-5.629 14.627a8.001 8.001 0 0 1-5.614 4.908 93.641 93.641 0 0 0-27.447 11.38 7.998 7.998 0 0 1-7.445.499l-14.335-6.368-15.046 15.046 6.368 14.34a8.005 8.005 0 0 1-.499 7.441 93.51 93.51 0 0 0-11.384 27.446 7.984 7.984 0 0 1-4.909 5.615l-14.622 5.628v21.277l14.622 5.633a7.996 7.996 0 0 1 4.909 5.615 93.588 93.588 0 0 0 11.379 27.451 7.988 7.988 0 0 1 .499 7.44l-6.363 14.33 15.046 15.051 14.34-6.372a8.006 8.006 0 0 1 7.441.504 93.494 93.494 0 0 0 27.447 11.375 8.006 8.006 0 0 1 5.614 4.913l5.629 14.627h21.281l5.624-14.627a8.01 8.01 0 0 1 5.618-4.909zm281.44-389.216C455.039 9.045 426.02 1.27 403.402 14.325c-12.594 7.271-20.58 19.488-22.943 32.793a33.782 33.782 0 0 0-7.271-2.88c-8.589-2.301-17.54-1.134-25.211 3.29-14.015 8.095-19.908 24.938-14.768 39.697-.569.273-1.139.569-1.689.885-5.718 3.304-9.76 8.645-11.37 15.041a24.14 24.14 0 0 0-.73 6.532h-66.386c-8.245 0-14.952 6.706-14.952 14.947v10.744c0 8.245 6.706 14.951 14.952 14.951h8.961v96.218l-18.683-18.684a8.007 8.007 0 0 0-8.904-1.657l-15.597 6.928a109.742 109.742 0 0 0-24.312-10.081l-6.127-15.917a8.004 8.004 0 0 0-7.469-5.125h-32.261a7.997 7.997 0 0 0-7.464 5.125l-6.128 15.917a109.7 109.7 0 0 0-24.317 10.081l-15.596-6.928a7.999 7.999 0 0 0-8.904 1.657l-22.811 22.816a7.99 7.99 0 0 0-1.657 8.899l6.928 15.596a109.457 109.457 0 0 0-10.085 24.317L42.7 305.615a7.994 7.994 0 0 0-5.13 7.464v32.266a7.993 7.993 0 0 0 5.13 7.464l15.907 6.127a109.66 109.66 0 0 0 10.081 24.322l-6.923 15.587a7.997 7.997 0 0 0 1.657 8.904l22.811 22.815a7.999 7.999 0 0 0 8.904 1.652l15.601-6.923a109.663 109.663 0 0 0 24.312 10.081l6.128 15.912a7.99 7.99 0 0 0 7.464 5.125h32.266a7.993 7.993 0 0 0 7.464-5.125l6.123-15.907c.249-.071.499-.155.748-.226 22.303 40.982 65.76 68.856 115.608 68.856 72.518 0 131.52-58.997 131.52-131.52 0-53.886-32.99-102.261-82.669-122.131V150.324h8.97c8.24 0 14.951-6.706 14.951-14.951v-3.723a33.035 33.035 0 0 0 10.678-3.897c7.657-4.429 13.149-11.596 15.451-20.189a33.58 33.58 0 0 0 1.139-7.756c1.289.466 2.612.875 3.953 1.238 12.245 3.28 24.999 1.619 35.918-4.687 10.918-6.301 18.74-16.519 22.02-28.769 3.289-12.251 1.618-25.009-4.684-35.927z" opacity="1" data-original="#242222" class=""></path></g></g></svg>