<svg xmlns="http://www.w3.org/2000/svg" version="1.1" xmlns:xlink="http://www.w3.org/1999/xlink" width="512" height="512" x="0" y="0" viewBox="0 0 62 62" style="enable-background:new 0 0 512 512" xml:space="preserve" class="hovered-paths"><g><path fill="#f0d0b4" d="M52 1v8H42V1zM20 1v8H10V1zM36 1v8H26V1z" opacity="1" data-original="#f0d0b4"></path><path fill="#ccd1d9" d="M57 53H5V19a4 4 0 0 1 4-4h44a4 4 0 0 1 4 4z" opacity="1" data-original="#ccd1d9" class=""></path><path fill="#69d6f4" d="M52 49H10a1 1 0 0 1-1-1V20a1 1 0 0 1 1-1h42a1 1 0 0 1 1 1v28a1 1 0 0 1-1 1z" opacity="1" data-original="#69d6f4" class=""></path><path fill="#969faa" d="M59 53H3c-.55 0-1.05.22-1.41.59-.37.36-.59.86-.59 1.41 0 3.31 2.69 6 6 6h48c1.66 0 3.16-.67 4.24-1.76A5.944 5.944 0 0 0 61 55c0-1.1-.9-2-2-2z" opacity="1" data-original="#969faa"></path><path fill="#ff826e" d="M51 57h4v4h-4zM43 57h4v4h-4zM38 53v2c0 1.1-.9 2-2 2H26c-1.1 0-2-.9-2-2v-2z" opacity="1" data-original="#ff826e"></path><path fill="#ffc729" d="M47 43v6h-6.45v-.03c.29-.94.45-1.93.45-2.97 0-5.52-4.48-10-10-10s-10 4.48-10 10c0 1.05.16 2.05.46 3H15v-6l2.54-.81c.3-1.06.72-2.07 1.24-3.02l-1.22-2.36 4.25-4.25 2.36 1.22c.95-.52 1.96-.94 3.02-1.24L28 30h6l.81 2.54c1.06.3 2.07.72 3.02 1.24l2.36-1.22 4.25 4.25-1.22 2.36c.52.95.94 1.96 1.24 3.02z" opacity="1" data-original="#ffc729"></path><path fill="#fcd770" d="M41 46c0 1.04-.16 2.03-.45 2.97V49h-6.91A3.95 3.95 0 0 0 35 46c0-2.21-1.79-4-4-4s-4 1.79-4 4c0 1.2.52 2.27 1.36 3h-6.9c-.3-.95-.46-1.95-.46-3 0-5.52 4.48-10 10-10s10 4.48 10 10z" opacity="1" data-original="#fcd770"></path><path d="M59 52h-1V19c0-2.757-2.243-5-5-5h-3v2h3c1.654 0 3 1.346 3 3v33H6V19c0-1.654 1.346-3 3-3h3v-2H9c-2.757 0-5 2.243-5 5v33H3c-1.654 0-3 1.346-3 3 0 3.859 3.141 7 7 7h48c3.859 0 7-3.141 7-7 0-1.654-1.346-3-3-3zm-34 2h12v1a1 1 0 0 1-1 1H26a1 1 0 0 1-1-1zm21 6h-2v-2h2zm8 0h-2v-2h2zm2-.101V56h-6v4h-2v-4h-6v4H7c-2.757 0-5-2.243-5-5a1 1 0 0 1 1-1h20v1c0 1.654 1.346 3 3 3h10c1.654 0 3-1.346 3-3v-1h20a1 1 0 0 1 1 1 5.01 5.01 0 0 1-4 4.899z" fill="#000000" opacity="1" data-original="#000000" class="hovered-path"></path><path d="M22 20v-2H10c-1.103 0-2 .897-2 2v28c0 1.103.897 2 2 2h42c1.103 0 2-.897 2-2V20c0-1.103-.897-2-2-2H40v2h12v28h-4v-5.729l-2.734-.876a15.06 15.06 0 0 0-.919-2.229l1.312-2.549-5.274-5.274-2.549 1.312c-.71-.362-1.456-.67-2.229-.919L34.729 29H27.27l-.876 2.734a15.06 15.06 0 0 0-2.229.919l-2.549-1.312-5.274 5.274 1.312 2.549c-.362.71-.67 1.456-.919 2.229L14 42.271V48h-4V20zm0 26c0-4.963 4.037-9 9-9s9 4.037 9 9c0 .679-.1 1.345-.249 2h-4.172A4.994 4.994 0 0 0 36 46c0-2.757-2.243-5-5-5s-5 2.243-5 5c0 .696.148 1.375.421 2H22.25a9.007 9.007 0 0 1-.25-2zm6 0c0-1.654 1.346-3 3-3s3 1.346 3 3c0 .746-.292 1.451-.788 2h-4.425A2.99 2.99 0 0 1 28 46zm-12-2.271 2.356-.754.146-.517a12.89 12.89 0 0 1 1.153-2.797l.262-.469-1.13-2.194 3.212-3.212 2.194 1.13.469-.262a12.89 12.89 0 0 1 2.797-1.153l.517-.146.753-2.355h4.541l.754 2.356.517.146c.988.279 1.93.667 2.797 1.153l.469.262 2.194-1.13 3.212 3.212-1.13 2.194.262.469a12.89 12.89 0 0 1 1.153 2.797l.146.517 2.356.753V48h-4.189c.121-.657.189-1.325.189-2 0-6.065-4.935-11-11-11s-11 4.935-11 11c0 .675.069 1.343.189 2H16zM13 4h4v2h-4zM29 4h4v2h-4zM45 4h4v2h-4z" fill="#000000" opacity="1" data-original="#000000" class="hovered-path"></path><path d="M30 27h2V10h5V0H25v10h5zM27 2h8v6h-8zM46 14H36v13h2V16h10v-6h5V0H41v10h5zM43 2h8v6h-8zM14 16h10v11h2V14H16v-4h5V0H9v10h5zM11 2h8v6h-8z" fill="#000000" opacity="1" data-original="#000000" class="hovered-path"></path></g></svg>